{"title":"The Voice - Australia S01 E16 - pKcMvA","uid":7364347,"size":740662848,"categoryP":"video","categoryS":"tv_shows","magnet":"?xt=urn:btih:045f482b795022713bf57f4e144913d677bfeb99&amp;dn=The+Voice+-+Australia+S01+E16+-+pKcMvA&amp;tr=udp%3A%2F%2Ftracker.openbittorrent.com%3A80&amp;tr=udp%3A%2F%2Fopen.demonii.com%3A1337&amp;tr=udp%3A%2F%2Ftracker.coppersurfer.tk%3A6969&amp;tr=udp%3A%2F%2Fexodus.desync.com%3A6969","seeders":0,"leechers":1,"uploader":"PKCMVA","files":1,"time":1340056896,"description":"The Voice - Australia S01 E16 - pKcMvA\n\nThe Live Finale, Part 2\n\nFormat                                   : AVI\nFormat/Info                              : Audio Video Interleave\nFile size                                : 706 MiB\nDuration                                 : 1h 15mn\nOverall bit rate                         : 1 300 Kbps\nWriting library                          : MPlayer\n\nVideo\n\nFormat                                   : MPEG-4 Visual\nFormat profile                           : Advanced Simple@L5\nFormat settings, BVOP                    : 2\nFormat settings, QPel                    : No\nFormat settings, GMC                     : No warppoints\nFormat settings, Matrix                  : Default (H.263)\nMuxing mode                              : Packed bitstream\nCodec ID                                 : XVID\nCodec ID/Hint                            : XviD\nDuration                                 : 1h 15mn\nBit rate                                 : 1 103 Kbps\nWidth                                    : 624 pixels\nHeight                                   : 352 pixels\nDisplay aspect ratio                     : 16:9\nFrame rate                               : 25.000 fps\nColor space                              : YUV\nChroma subsampling                       : 4:2:0\nBit depth                                : 8 bits\nScan type                                : Progressive\nBits/(Pixel*Frame)                       : 0.201\nStream size                              : 599 MiB (85%)\nWriting library                          : XviD 64\n\nAudio\n\nFormat                                   : MPEG Audio\nFormat version                           : Version 1\nFormat profile                           : Layer 3\nCodec ID                                 : 55\nCodec ID/Hint                            : MP3\nDuration                                 : 1h 15mn\nBit rate mode                            : Constant\nBit rate                                 : 192 Kbps\nChannel(s)                               : 2 channels\nSampling rate                            : 44.1 KHz\nStream size                              : 104 MiB (15%)\nAlignment                                : Split accross interleaves\nInterleave, duration                     : 500 ms (12.50 video frames)\nInterleave, preload duration             : 500 ms","torrent":{"xt":"urn:btih:045f482b795022713bf57f4e144913d677bfeb99","amp;dn":"The+Voice+-+Australia+S01+E16+-+pKcMvA","amp;tr":["udp%3A%2F%2Ftracker.openbittorrent.com%3A80","udp%3A%2F%2Fopen.demonii.com%3A1337","udp%3A%2F%2Ftracker.coppersurfer.tk%3A6969","udp%3A%2F%2Fexodus.desync.com%3A6969"],"infoHash":"045f482b795022713bf57f4e144913d677bfeb99","infoHashBuffer":{"type":"Buffer","data":[4,95,72,43,121,80,34,113,59,245,127,78,20,73,19,214,119,191,235,153]},"announce":[],"urlList":[]}}